<?xml version="1.0" encoding="UTF-8"?>
<svg id="Layer_1" data-name="Layer 1" xmlns="http://www.w3.org/2000/svg" viewBox="0 0 512 512">
  <defs>
    <style>
      .cls-1 {
        fill: #00bdff;
      }

      .cls-2 {
        fill: #fff;
      }

      .cls-3 {
        fill: #020293;
      }

      .cls-4 {
        fill: #231f20;
      }
    </style>
  </defs>
  <path class="cls-1" d="m48.87,253.77c1.48-115.11,95.36-205.4,208.04-204.92,114.36.49,207.18,94.03,206.21,208.99-.95,113.21-93.47,206.48-209.23,205.3-114.55-1.17-206.07-94.75-205.02-209.38Zm386.46,2.16c.09-98.64-80.06-179.26-179.29-179.28-99.19-.02-179.41,80.58-179.37,179.44.04,98.24,79.47,179.37,179.51,179.28,99.76-.09,179.26-81.07,179.15-179.44Z"/>
  <path class="cls-2" d="m435.33,255.93c.11,98.37-79.38,179.35-179.15,179.44-100.05.09-179.47-81.05-179.51-179.28-.04-98.86,80.18-179.46,179.37-179.44,99.22.02,179.38,80.64,179.29,179.28Zm-100.59,116.11c1.91.4,3.85.17,5.77.25,1.64.06,3.14-.32,4.59-1.01.81-.38,1.6-.8,2.39-1.23,4-2.18,6.64-5.49,8.14-9.77,3.21-9.11-1.77-19.4-10.91-22.4-.13-.04-.27-.06-.4-.11-1.8-.62-1.84-.67-1.85-2.67,0-1.24.02-2.48.02-3.72,0-7.79,0-15.59,0-23.38,0-2.05.03-2.06,2.1-2.07,2.9-.01,5.79-.03,8.69.01.92.01,1.57-.23,2.06-1.04.94-1.53,1.94-3.01,2.91-4.52.18-.29.34-.6.47-.92.18-.43-.08-.86-.54-.89-.62-.04-1.24-.04-1.86-.04-4.07,0-8.14,0-12.21-.01-1.18,0-1.49-.31-1.5-1.46-.02-2.83,0-5.66.01-8.48,0-.14,0-.28.03-.41.08-.56.38-.87.94-.91.48-.03.96-.01,1.45-.01,6.97,0,13.93,0,20.9,0,.55,0,1.1,0,1.65-.03.62-.04.88-.48.57-.98-1.08-1.76-2.18-3.51-3.28-5.26-.48-.75-1.18-1.13-2.08-1.12-.41,0-.83,0-1.24,0-5.45,0-10.9.02-16.34.03-.48,0-.97.02-1.45-.02-.74-.07-1.13-.45-1.14-1.21-.02-2.28,0-4.55,0-6.83,0-.76.44-1.11,1.16-1.17,4.62,0,9.24.01,13.86.01.05,0,.1-.09.15-.13.39-.19.45-.47.23-.83-1.01-1.65-2.09-3.25-2.99-4.95-.56-1.06-1.28-1.56-2.44-1.5-.28.01-.55,0-.83,0-5.17,0-10.34,0-15.51,0-.41,0-.83-.02-1.24.01-.91.06-1.18.34-1.28,1.29-.04.41-.04.83-.03,1.24,0,1.52.03,3.03.03,4.55.01,21.45.02,42.89.02,64.34,0,.48.01.97-.02,1.45-.06.9-.5,1.56-1.34,1.92-.51.22-1.03.41-1.51.66-5.6,2.91-8.94,7.52-9.79,13.74-1.05,7.7,3.47,15.38,10.66,18.6l.02.13.13-.03c.34.12.68.24,1.03.36l.04.13.14-.04c.38.09.76.18,1.15.27.1.22.27.22.47.15Zm-79.5-117.87c54.27,0,108.53,0,162.8,0,.55,0,1.1,0,1.65,0,1.39-.03,1.46-.07,1.43-1.37-.05-1.79-.17-3.58-.25-5.37-.3-6.76-1.1-13.47-2.28-20.13-2.1-11.85-5.46-23.34-10.09-34.45-8.26-19.85-19.95-37.42-35.03-52.73-15.48-15.71-33.4-27.87-53.72-36.46-18.09-7.65-36.98-11.83-56.57-12.77-13.06-.62-26.04.29-38.9,2.77-12.91,2.5-25.37,6.4-37.33,11.88-24.26,11.11-44.72,27.1-61.3,48-16.48,20.79-27.32,44.22-32.59,70.23-1.41,6.97-2.32,14.01-2.8,21.1-.19,2.75-.3,5.51-.4,8.26-.03.84.15,1,.93,1.03.69.03,1.38.01,2.07.01,54.13,0,108.26,0,162.39,0Zm45.07,25.92c0-1.09,0-1.77,0-2.44,0-4,0-8,0-12,0-.48.02-.97-.03-1.45-.05-.55-.39-.84-.96-.9-.07,0-.14-.02-.21-.02-2.21,0-4.41,0-6.62.03-.84.01-1.08.29-1.15,1.13-.02.27-.01.55-.02.83-.08,13.24.16,26.48-.13,39.72-.01.49.26.79.71.86.47.07.96.07,1.44.07,1.45,0,2.9-.06,4.34,0,2.6.12,2.66-.28,2.64-2.65-.04-3.31,0-6.62-.04-9.93,0-.88.21-1.6.86-2.22.8-.76,1.54-1.58,2.29-2.38,1.85-1.98,1.86-2.04,3.34.23,3.08,4.74,6.2,9.46,9.3,14.18.38.58.78,1.14,1.15,1.72.49.76,1.15,1.1,2.08,1.08,2.14-.04,4.27-.02,6.41-.02.9,0,1.79,0,2.69-.01.49-.01.7-.44.43-.86-.29-.47-.62-.91-.94-1.36-4.95-7.06-9.9-14.11-14.84-21.17-1.41-2.02-1.41-2.03.32-3.78,3.69-3.73,7.38-7.45,11.07-11.17,1.17-1.17,2.34-2.34,3.5-3.52.13-.14.23-.36.05-.55-.08-.09-.21-.18-.32-.18-3.38-.01-6.76-.01-10.13-.01-.43,0-.81.17-1.11.47-.34.34-.68.69-1,1.04-2.95,3.19-5.89,6.39-8.85,9.57-1.83,1.96-3.82,3.75-6.29,5.69Zm-141.47,5.2c1.29-.62,2.43-1.09,3.5-1.68,2.85-1.56,4.55-3.96,5-7.18.62-4.44-.75-8.98-6.9-10.57-.13-.03-.27-.05-.41-.08-1.61-.44-3.27-.48-4.92-.47-4.76.02-9.51.06-14.27.09-.21,0-.42-.01-.62.03-.19.04-.38.13-.42.38-.06.3,0,.62.23.73.49.24,1.03.38,1.55.56,2,.7,2.29.28,2.29,3.18,0,9.65,0,19.31,0,28.96,0,.55,0,1.1-.05,1.65-.04.52-.32.91-.83,1.07-.85.28-1.71.53-2.56.82-.5.17-.73.52-.63.91.1.42.43.49.79.5.07,0,.14,0,.21,0,3.79,0,7.58,0,11.37,0,.2,0,.41-.04.61-.09.29-.07.45-.65.22-.87-.19-.18-.41-.37-.65-.46-.65-.23-1.32-.39-1.98-.59-.68-.21-1.01-.67-1.01-1.38,0-.21-.01-.41-.01-.62,0-4.27-.02-8.55-.02-12.82,0-.27-.01-.56.07-.82.05-.16.24-.36.4-.39,2.04-.48,3.47.06,4.59,1.83.96,1.51,1.86,3.06,2.77,4.61,1.39,2.38,2.75,4.78,4.15,7.15.56.95,1.2,1.85,1.98,2.64,1.21,1.23,2.64,1.99,4.39,2.01,1.65.01,3.31.05,4.96-.09,1.72-.14,3.44-.18,5.16-.17,1.31,0,2.62.05,3.93.06.34,0,.69.02,1.02-.06.16-.04.35-.24.4-.41.08-.26.04-.58-.21-.75-.22-.15-.49-.24-.74-.32-.59-.19-1.2-.34-1.77-.56-.72-.28-.97-.73-.84-1.46.06-.34.17-.67.29-.99,1.13-2.96,2.29-5.91,3.41-8.87.25-.66.63-.97,1.37-.97,3.79.02,7.58.02,11.37,0,.64,0,1.03.24,1.24.85,1.05,3.06,2.11,6.12,3.15,9.19.13.38.18.81.2,1.21.03.45-.2.81-.61,1-.44.2-.9.35-1.35.5-.39.13-.8.21-1.18.37-.25.11-.44.33-.41.65.04.4.29.59.68.63.14.01.28.02.41.01,4,0,7.99,0,11.99,0,.4,0,.85.08,1.07-.4.17-.37-.15-.79-.78-1.02-.13-.05-.27-.07-.4-.11-2.67-.76-3.03-.78-4.34-4.14-.05-.13-.08-.26-.13-.39-3.72-10.3-7.45-20.6-11.18-30.9-.21-.58-.44-1.16-.66-1.74-.17-.43-.46-.63-.95-.62-1.98.06-2.1.13-2.88,1.98-.05.13-.1.26-.15.39-3.96,9.47-7.91,18.94-11.87,28.41-.64,1.52-1.23,3.08-1.97,4.55-1.27,2.54-4,3.13-6.23,1.38-.64-.5-1.2-1.14-1.73-1.77-.45-.52-.84-1.1-1.2-1.68-2.61-4.22-5.21-8.44-7.92-12.85Zm225.47,12.17h0c0,2.34-.02,4.69,0,7.03.01,1.23.22,1.41,1.48,1.43,1.65.02,3.31,0,4.96,0,2.36.02,2.47-.08,2.46-2.39-.02-3.79.04-7.58-.06-11.37-.04-1.81.42-3.32,1.42-4.83,4.17-6.25,7.89-12.78,11.25-19.5.58-1.17,1.09-2.38,1.58-3.59.23-.57-.04-.93-.67-.94-2.69-.01-5.38.01-8.06-.01-.74,0-1.14.31-1.38.97-.54,1.49-1.05,2.99-1.66,4.45-1.62,3.89-3.77,7.5-5.87,11.14-.1.18-.22.35-.34.51-.24.32-.64.37-.86.09-.21-.27-.41-.55-.59-.84-2.82-4.58-5.44-9.26-7.43-14.28-.15-.38-.3-.77-.47-1.15-.24-.54-.62-.89-1.26-.89-2.83.01-5.65,0-8.48.03-.75,0-.94.38-.62,1.09.14.31.31.62.46.92,3.96,7.81,8.14,15.49,13.27,22.61.63.88.91,1.8.89,2.89-.05,2.2-.02,4.41-.02,6.62Zm-119.43-32.98c-2.3-.01-4.29.09-6.24.56-6.03,1.44-10.48,4.88-12.8,10.66-2.4,5.97-2.47,12.12-.25,18.17,2.01,5.49,5.94,9.01,11.62,10.48,4.14,1.07,8.31,1.06,12.47.06,5.98-1.43,10.12-5.04,12.6-10.63,1.02-2.29,1.53-4.71,1.76-7.19.36-3.96.06-7.85-1.47-11.57-1.85-4.51-5.06-7.63-9.65-9.32-2.69-.99-5.48-1.28-8.03-1.23Zm-145.02.92s0,0,0,0c-4.89,0-9.79,0-14.68,0-.55,0-1.1,0-1.65.02-.41.02-.59.28-.62.67,0,.07,0,.14,0,.21.18,2.82.37,5.64.56,8.46,0,.07.03.13.04.2.05.23.22.36.42.38.19.01.48-.02.57-.15.23-.33.42-.7.55-1.09.61-1.76,1.19-3.52,1.78-5.29.2-.59.55-.88,1.21-.88,2.27.03,4.55.01,6.82,0,1.94,0,1.96-.06,1.96,1.91,0,9.03,0,18.06,0,27.09,0,1.17-.05,2.34-.05,3.51,0,.8-.34,1.27-1.14,1.48-1,.26-1.98.58-2.96.9-.35.11-.59.35-.56.76.03.42.3.59.68.6.48.01.96,0,1.45,0,2.96-.01,5.93-.03,8.89-.03,1.03,0,2.07.04,3.1.05.42,0,.87.02.92-.56.04-.5-.33-.72-.74-.86-.46-.15-.92-.29-1.38-.43-2.93-.88-2.66-.44-2.67-3.64-.02-9.58-.02-19.16-.02-28.74,0-.41,0-.83.02-1.24.02-.47.25-.77.75-.78.83-.01,1.65-.02,2.48-.02,1.86,0,3.72.02,5.58,0,.58,0,.9.26,1.04.79.09.33.16.67.23,1.01.31,1.34.62,2.68.94,4.02.09.4.19.81.31,1.2.09.29.34.44.64.38.19-.04.44-.14.5-.29.17-.37.28-.78.35-1.18.32-1.76.62-3.53.93-5.29.13-.75.28-1.49.39-2.24.1-.7-.07-.91-.71-.93-.55-.02-1.1,0-1.65,0-4.76,0-9.51,0-14.27,0Zm106.26,31.24c-.51-.24-.57-.67-.7-1.05-.88-2.46-1.77-4.93-2.65-7.39-2.06-5.77-4.13-11.54-6.18-17.31-.23-.65-.45-1.31-.58-1.98-.17-.86.11-1.3.92-1.6.58-.22,1.18-.37,1.77-.55.4-.12.81-.2.83-.75.02-.44-.24-.61-1.09-.61-4,0-7.99,0-11.99,0-.14,0-.28,0-.41.02-.3.03-.53.18-.56.49-.02.28.08.57.36.68.51.2,1.03.4,1.56.52,1.55.36,2.51,1.35,3.05,2.8.29.78.59,1.54.88,2.32,3.64,9.89,7.28,19.77,10.92,29.66.24.65.5,1.28.76,1.92.11.28.35.41.64.43,1.81.18,2.26-.08,2.97-1.78,2.94-7.06,5.86-14.12,8.8-21.18,1.59-3.81,3.22-7.61,4.79-11.43.6-1.46,1.57-2.38,3.11-2.73.6-.14,1.17-.38,1.73-.64.12-.06.18-.36.19-.55,0-.2-.09-.42-.33-.45-.41-.05-.82-.08-1.23-.08-1.93,0-3.86.03-5.79.03-1.31,0-2.62-.02-3.93-.02-.28,0-.56.06-.61.4-.06.35-.04.71.37.85.65.22,1.32.39,1.97.61,1.05.35,1.31.76,1.05,1.86-.19.8-.47,1.58-.77,2.35-3.11,8.03-6.23,16.05-9.36,24.07-.14.37-.33.72-.5,1.08Z"/>
  <path class="cls-1" d="m255.24,254.17c-54.13,0-108.26,0-162.39,0-.69,0-1.38.01-2.07-.01-.77-.03-.96-.19-.93-1.03.11-2.76.22-5.51.4-8.26.48-7.09,1.39-14.13,2.8-21.1,5.27-26.01,16.1-49.44,32.59-70.23,16.58-20.91,37.04-36.89,61.3-48,11.96-5.48,24.42-9.38,37.33-11.88,12.86-2.49,25.83-3.4,38.9-2.77,19.59.94,38.48,5.12,56.57,12.77,20.32,8.59,38.24,20.75,53.72,36.46,15.08,15.31,26.77,32.88,35.03,52.73,4.63,11.11,7.99,22.6,10.09,34.45,1.18,6.66,1.98,13.37,2.28,20.13.08,1.79.2,3.58.25,5.37.04,1.31-.04,1.34-1.43,1.37-.55.01-1.1,0-1.65,0-54.27,0-108.53,0-162.8,0Zm-66.15-12.75c2.7.2,5.04.08,7.37-.15,4.52-.45,9.03-1,13.51-1.85,4.54-.86,9.02-1.94,13.45-3.22,4.37-1.27,8.62-2.87,12.87-4.49,1.49-.57,3.01-.98,4.58-1.26,1.23-.22,2.47-.22,3.7,0,.35.06.64.26.55.71-.06.34-.18.68-.15,1.02.16,1.81,1.31,3.23,3.39,3.1.94-.06,1.75-.42,2.42-1.03.66-.6,1.29-1.25,1.83-1.96.61-.81,1.38-1.3,2.32-1.63,1.49-.53,2.97-1.09,4.45-1.66,4.69-1.82,9.41-3.56,13.77-6.13,1.53-.39,2.53-1.58,3.72-2.49,2.94-2.25,5.33-5,7.39-8.04,2.56-3.76,4.94-7.64,7.24-11.57,2.59-4.42,4.66-9.06,6.2-13.95,1.01-3.21,1.76-6.5,2.93-9.67,1.17-3.19,2.63-6.2,4.5-9.03,3.32-5.04,7.44-9.39,11.71-13.61,1.91-1.89,3.89-3.72,5.77-5.64.87-.89,1.68-1.82,2.63-2.63.47-.4.86-.89,1.26-1.35.07-.08.09-.31.03-.38-.12-.14-.31-.31-.47-.31-.26,0-.56.07-.76.22-.6.46-1.17.97-1.73,1.48-3.32,3.01-6.71,5.94-10.25,8.69-6.01,4.69-12.41,8.69-19.54,11.49-2.63,1.03-5.2,2.22-7.66,3.61-2.24,1.27-4.27,2.79-6,4.69-2.34,2.56-3.89,5.5-4.25,9-.07.68-.24,1.36-.38,2.03-.1.48-.35.9-.68,1.26-.76.86-1.75.86-2.49,0-.51-.58-.76-1.3-1.08-1.99-1.83-3.94-3.58-7.91-5.5-11.8-2.65-5.38-5.51-10.64-8.57-15.79-3-5.04-6.07-10.03-9.4-14.85-.31-.45-.52-1.03-1.08-1.22-.69-.23-.9-.82-1.2-1.34-4.01-6.95-9.15-12.93-15.37-17.98-4.25-3.45-8.86-6.33-13.86-8.56-1.26-.56-1.7-.35-2.21.9-.33.81-.31,1.63-.03,2.43.25.71.57,1.41.92,2.07.5.94.73,1.93.67,2.99-.04.83-.12,1.65-.21,2.47-.05.48-.17.95-.2,1.43-.11,1.65.12,3.17,1.6,4.23.16.11.24.32.35.47-.06.15-.07.3-.16.37-1.65,1.35-1.56,3.95-.49,5.48.59.85,1.19,1.7,1.84,2.5,1.3,1.6,1.78,3.36,1.28,5.38-.67,2.68-.12,5.19,1.13,7.59.64,1.22,1.3,2.43,1.94,3.65.7,1.35,1.3,2.73,1.71,4.2.2.72.19,1.33-.36,1.91-.76.81-.85,1.85-.86,2.9-.02,1.58.46,3,1.42,4.23.68.87,1.42,1.69,2.17,2.49,1.32,1.41,2.59,2.87,3.41,4.65,1.87,4.07,3.74,8.14,5.6,12.21.2.43.33.83.15,1.37-.46,1.31.07,2.43.99,3.37.39.39.81.75,1.26,1.07,1.31.91,1.94,2.06,1.6,3.71-.29,1.43.15,2.74,1.08,3.85.93,1.11,1.9,2.19,2.85,3.27.23.26.48.49.7.76.15.18.11.42-.05.55-.43.34-.88.66-1.35.95-3.65,2.35-7.31,4.69-10.97,7.03-13.65,8.73-27.29,17.46-40.94,26.2-.62.4-1.3.72-2.02,1.59Z"/>
  <path class="cls-3" d="m343.8,270.67c-.72.05-1.16.4-1.16,1.17-.01,2.28-.03,4.55,0,6.83,0,.76.4,1.14,1.14,1.21.48.04.96.02,1.45.02,5.45,0,10.9-.02,16.34-.03.41,0,.83,0,1.24,0,.9-.01,1.61.37,2.08,1.12,1.11,1.74,2.2,3.5,3.28,5.26.31.5.04.94-.57.98-.55.03-1.1.03-1.65.03-6.97,0-13.93,0-20.9,0-.48,0-.97-.02-1.45.01-.56.04-.86.35-.94.91-.02.14-.03.28-.03.41,0,2.83-.03,5.66-.01,8.48,0,1.14.32,1.45,1.5,1.46,4.07.02,8.14,0,12.21.01.62,0,1.24,0,1.86.04.46.03.71.45.54.89-.13.32-.28.63-.47.92-.97,1.51-1.97,3-2.91,4.52-.49.8-1.14,1.05-2.06,1.04-2.9-.05-5.79-.03-8.69-.01-2.07,0-2.09.02-2.1,2.07,0,7.79,0,15.59,0,23.38,0,1.24-.03,2.48-.02,3.72,0,2,.06,2.06,1.85,2.67.13.04.27.07.4.11,9.15,3,14.12,13.29,10.91,22.4-1.51,4.28-4.14,7.59-8.14,9.77-.79.43-1.58.85-2.39,1.23-1.45.68-2.94,1.07-4.59,1.01-1.92-.07-3.86.15-5.77-.24-.1-.23-.28-.2-.47-.15-.38-.09-.76-.18-1.14-.27,0,0-.03-.13-.03-.13l-.15.04c-.34-.12-.68-.24-1.03-.36,0,0-.02-.12-.02-.12l-.13.02c-7.19-3.22-11.71-10.9-10.66-18.6.85-6.22,4.19-10.83,9.79-13.74.49-.25,1.01-.45,1.51-.66.84-.36,1.28-1.02,1.34-1.92.03-.48.02-.96.02-1.45,0-21.45-.01-42.89-.02-64.34,0-1.52-.03-3.03-.03-4.55,0-.41,0-.83.03-1.24.09-.95.37-1.22,1.28-1.29.41-.03.83-.01,1.24-.01,5.17,0,10.34,0,15.51,0,.28,0,.55.01.83,0,1.16-.06,1.88.44,2.44,1.5.9,1.7,1.99,3.3,2.99,4.95.22.35.16.64-.23.83-4.54,0-9.09-.01-13.64-.01-.12,0-.25.09-.37.13Zm-3.29,74.48c-1.12-.38-2.24-.39-3.37-.03-.6.16-1.21.27-1.79.48-3.91,1.41-6.54,5.33-6.3,9.47.34,5.8,6.07,10.36,11.67,9,.47-.11.94-.21,1.41-.32l.05-.06c2.1-.75,3.73-2.06,4.83-4,3.34-5.86.34-13.62-6.51-14.55Z"/>
  <path class="cls-3" d="m300.3,280.08c2.47-1.94,4.46-3.73,6.29-5.69,2.96-3.18,5.9-6.38,8.85-9.57.33-.35.66-.7,1-1.04.31-.3.68-.47,1.11-.47,3.38,0,6.76,0,10.13.01.11,0,.24.1.32.18.18.19.08.41-.05.55-1.16,1.18-2.34,2.34-3.5,3.52-3.69,3.72-7.38,7.44-11.07,11.17-1.73,1.75-1.74,1.76-.32,3.78,4.94,7.06,9.89,14.11,14.84,21.17.32.45.64.89.94,1.36.27.42.05.85-.43.86-.9.02-1.79,0-2.69.01-2.14,0-4.28-.02-6.41.02-.93.02-1.59-.32-2.08-1.08-.37-.58-.77-1.14-1.15-1.72-3.1-4.72-6.22-9.44-9.3-14.18-1.48-2.27-1.49-2.21-3.34-.23-.75.81-1.5,1.62-2.29,2.38-.65.62-.87,1.33-.86,2.22.04,3.31,0,6.62.04,9.93.03,2.37-.03,2.78-2.64,2.65-1.44-.07-2.9,0-4.34,0-.48,0-.97,0-1.44-.07-.46-.07-.72-.37-.71-.86.29-13.24.05-26.48.13-39.72,0-.28,0-.55.02-.83.07-.84.31-1.12,1.15-1.13,2.21-.03,4.41-.02,6.62-.03.07,0,.14.01.21.02.57.06.9.35.96.9.05.48.03.96.03,1.45,0,4,0,8,0,12,0,.68,0,1.35,0,2.44Z"/>
  <path class="cls-1" d="m158.84,285.28c2.71,4.4,5.31,8.63,7.92,12.85.36.58.75,1.16,1.2,1.68.54.63,1.09,1.26,1.73,1.77,2.23,1.74,4.95,1.15,6.23-1.38.74-1.47,1.33-3.03,1.97-4.55,3.96-9.47,7.92-18.94,11.87-28.41.05-.13.1-.26.15-.39.79-1.85.9-1.92,2.88-1.98.49-.01.78.19.95.62.22.58.45,1.15.66,1.74,3.73,10.3,7.45,20.6,11.18,30.9.05.13.08.27.13.39,1.31,3.37,1.67,3.38,4.34,4.14.13.04.27.06.4.11.63.23.95.65.78,1.02-.22.48-.66.4-1.07.4-4,0-7.99,0-11.99,0-.14,0-.28,0-.41-.01-.39-.03-.64-.23-.68-.63-.04-.32.15-.54.41-.65.38-.16.79-.24,1.18-.37.46-.15.92-.3,1.35-.5.4-.19.64-.54.61-1-.03-.41-.07-.83-.2-1.21-1.04-3.07-2.11-6.12-3.15-9.19-.21-.6-.59-.85-1.24-.85-3.79.02-7.58.02-11.37,0-.74,0-1.12.3-1.37.97-1.12,2.96-2.27,5.92-3.41,8.87-.12.32-.23.65-.29.99-.13.73.12,1.18.84,1.46.58.22,1.18.37,1.77.56.26.08.52.17.74.32.25.17.28.49.21.75-.05.17-.24.37-.4.41-.33.08-.68.06-1.02.06-1.31-.02-2.62-.06-3.93-.06-1.72-.01-3.44.03-5.16.17-1.64.14-3.3.1-4.96.09-1.75-.02-3.18-.78-4.39-2.01-.78-.79-1.42-1.69-1.98-2.64-1.4-2.37-2.76-4.77-4.15-7.15-.91-1.55-1.81-3.1-2.77-4.61-1.12-1.76-2.55-2.31-4.59-1.83-.16.04-.35.23-.4.39-.08.26-.07.54-.07.82,0,4.27.01,8.55.02,12.82,0,.21.01.41.01.62,0,.71.34,1.17,1.01,1.38.66.2,1.33.37,1.98.59.24.08.46.28.65.46.23.22.07.8-.22.87-.2.05-.4.09-.61.09-3.79,0-7.58,0-11.37,0-.07,0-.14,0-.21,0-.36-.01-.69-.08-.79-.5-.09-.39.13-.74.63-.91.85-.29,1.71-.54,2.56-.82.51-.17.79-.55.83-1.07.04-.55.05-1.1.05-1.65,0-9.65,0-19.31,0-28.96,0-2.91-.29-2.48-2.29-3.18-.52-.18-1.06-.32-1.55-.56-.24-.11-.29-.44-.23-.73.05-.25.23-.33.42-.38.2-.04.41-.03.62-.03,4.76-.03,9.51-.07,14.27-.09,1.66,0,3.31.03,4.92.47.13.04.27.05.41.08,6.16,1.59,7.52,6.13,6.9,10.57-.45,3.22-2.15,5.63-5,7.18-1.08.59-2.21,1.06-3.5,1.68Zm-6.28-17.77c-.69.03-1.38.04-2.06.11-1.05.1-1.18.23-1.19,1.26-.02,2.27,0,4.54,0,6.81,0,2.41,0,4.82.01,7.23,0,.82.18,1.01.94,1.03,1.24.03,2.48.06,3.71-.02,1.1-.07,2.18-.31,3.22-.69,1.93-.71,3.24-2.01,3.89-3.98.78-2.36.79-4.74.06-7.11-.58-1.89-1.83-3.19-3.7-3.88-1.58-.58-3.2-.79-4.87-.75Zm38.09,5.29c-2.12,4.53-3.86,9.15-5.66,13.75-.07.17,0,.4,0,.67.38.03.71.09,1.04.09,3.16-.01,6.33-.03,9.49-.05.06,0,.14-.03.19-.08.04-.04.05-.12.13-.33-1.59-4.6-3.23-9.32-5.19-14.04Z"/>
  <path class="cls-3" d="m384.31,297.46c0-2.21-.04-4.41.02-6.62.03-1.09-.25-2.01-.89-2.89-5.12-7.12-9.31-14.8-13.27-22.61-.16-.31-.33-.61-.46-.92-.31-.72-.13-1.09.62-1.09,2.83-.03,5.65-.01,8.48-.03.64,0,1.02.34,1.26.89.17.38.32.76.47,1.15,1.99,5.01,4.61,9.7,7.43,14.28.18.29.38.58.59.84.23.28.62.24.86-.09.12-.17.24-.34.34-.51,2.1-3.64,4.24-7.26,5.87-11.14.61-1.46,1.12-2.96,1.66-4.45.24-.66.64-.98,1.38-.97,2.69.03,5.38,0,8.06.01.63,0,.9.37.67.94-.5,1.21-1,2.42-1.58,3.59-3.36,6.72-7.08,13.25-11.25,19.5-1.01,1.51-1.47,3.03-1.42,4.83.09,3.79.04,7.58.06,11.37,0,2.31-.1,2.41-2.46,2.39-1.65-.01-3.31.02-4.96,0-1.26-.01-1.47-.2-1.48-1.43-.02-2.34,0-4.69,0-7.03h0Z"/>
  <path class="cls-1" d="m264.87,264.47c2.55-.05,5.34.24,8.03,1.23,4.59,1.69,7.8,4.81,9.65,9.32,1.53,3.72,1.83,7.61,1.47,11.57-.23,2.48-.74,4.9-1.76,7.19-2.48,5.59-6.63,9.21-12.6,10.63-4.16.99-8.33,1.01-12.47-.06-5.67-1.47-9.61-4.99-11.62-10.48-2.21-6.06-2.15-12.2.25-18.17,2.32-5.77,6.78-9.22,12.8-10.66,1.96-.47,3.95-.57,6.24-.56Zm13.13,20.6c.11-2.55-.2-5.15-.81-7.7-.44-1.82-1.13-3.54-2.12-5.14-1.44-2.32-3.48-3.91-6.07-4.72-3.37-1.06-6.77-1.12-10.18-.13-3.03.88-5.2,2.74-6.57,5.56-.73,1.5-1.21,3.07-1.52,4.7-.7,3.69-.67,7.42-.3,11.13.29,2.9,1.1,5.68,2.67,8.19,1.72,2.75,4.14,4.55,7.31,5.35,2.04.52,4.1.55,6.16.35,4.65-.45,8.01-2.73,9.76-7.16.38-.96.67-1.96.9-2.96.58-2.42.84-4.89.77-7.47Z"/>
  <path class="cls-1" d="m119.85,265.39c4.76,0,9.51,0,14.27,0,.55,0,1.1-.02,1.65,0,.64.03.81.24.71.93-.11.75-.26,1.49-.39,2.24-.31,1.76-.61,3.53-.93,5.29-.07.4-.19.81-.35,1.18-.06.14-.32.25-.5.29-.3.06-.54-.09-.64-.38-.13-.39-.22-.8-.31-1.2-.32-1.34-.62-2.68-.94-4.02-.08-.34-.15-.67-.23-1.01-.14-.53-.46-.79-1.04-.79-1.86.02-3.72,0-5.58,0-.83,0-1.65,0-2.48.02-.51,0-.73.31-.75.78-.02.41-.02.83-.02,1.24,0,9.58,0,19.16.02,28.74,0,3.2-.26,2.76,2.67,3.64.46.14.92.27,1.38.43.41.14.78.35.74.86-.04.58-.5.56-.92.56-1.03-.01-2.07-.05-3.1-.05-2.96,0-5.93.02-8.89.03-.48,0-.96.02-1.45,0-.38-.01-.65-.18-.68-.6-.03-.41.21-.65.56-.76.98-.32,1.97-.64,2.96-.9.79-.21,1.14-.68,1.14-1.48,0-1.17.05-2.34.05-3.51,0-9.03,0-18.06,0-27.09,0-1.97-.03-1.91-1.96-1.91-2.27,0-4.55.02-6.82,0-.66,0-1.01.29-1.21.88-.59,1.76-1.17,3.53-1.78,5.29-.13.38-.32.76-.55,1.09-.09.13-.38.16-.57.15-.2-.01-.38-.14-.42-.38-.01-.07-.04-.13-.04-.2-.19-2.82-.37-5.64-.56-8.46,0-.07,0-.14,0-.21.03-.39.21-.65.62-.67.55-.02,1.1-.02,1.65-.02,4.89,0,9.79,0,14.68,0,0,0,0,0,0,0Z"/>
  <path class="cls-1" d="m226.11,296.63c.17-.36.35-.71.5-1.08,3.12-8.02,6.24-16.04,9.36-24.07.3-.77.58-1.55.77-2.35.26-1.1,0-1.51-1.05-1.86-.65-.22-1.32-.38-1.97-.61-.4-.14-.42-.5-.37-.85.06-.34.33-.41.61-.4,1.31,0,2.62.03,3.93.02,1.93,0,3.86-.03,5.79-.03.41,0,.82.03,1.23.08.24.03.34.25.33.45,0,.19-.06.49-.19.55-.56.26-1.14.5-1.73.64-1.54.36-2.51,1.28-3.11,2.73-1.56,3.82-3.2,7.62-4.79,11.43-2.94,7.06-5.86,14.12-8.8,21.18-.71,1.7-1.16,1.96-2.97,1.78-.29-.03-.52-.15-.64-.43-.26-.64-.52-1.28-.76-1.92-3.64-9.88-7.28-19.77-10.92-29.66-.29-.78-.59-1.54-.88-2.32-.54-1.46-1.5-2.44-3.05-2.8-.53-.12-1.05-.32-1.56-.52-.28-.11-.38-.4-.36-.68.02-.31.25-.46.56-.49.14-.01.28-.02.41-.02,4,0,7.99-.01,11.99,0,.85,0,1.11.17,1.09.61-.02.54-.44.63-.83.75-.59.18-1.2.33-1.77.55-.82.3-1.09.74-.92,1.6.13.67.35,1.33.58,1.98,2.05,5.77,4.12,11.54,6.18,17.31.88,2.46,1.77,4.93,2.65,7.39.14.39.19.82.7,1.05Z"/>
  <path class="cls-1" d="m343.8,270.67c.12-.05.25-.13.37-.13,4.55,0,9.1,0,13.64.01-.05.05-.1.14-.15.14-4.62,0-9.24,0-13.86-.01Z"/>
  <path class="cls-1" d="m334.27,371.89c.19-.05.37-.08.47.15-.2.08-.37.07-.47-.15Z"/>
  <polygon class="cls-1" points="331.77 371.06 331.9 371.05 331.92 371.16 331.79 371.19 331.77 371.06"/>
  <polygon class="cls-1" points="332.95 371.52 333.1 371.49 333.13 371.62 332.99 371.65 332.95 371.52"/>
  <path class="cls-4" d="m189.09,241.42c.71-.87,1.4-1.19,2.02-1.59,13.64-8.74,27.29-17.47,40.94-26.2,3.66-2.34,7.32-4.68,10.97-7.03.46-.3.91-.62,1.35-.95.17-.13.2-.36.05-.55-.22-.26-.47-.5-.7-.76-.95-1.09-1.92-2.17-2.85-3.27-.93-1.11-1.38-2.42-1.08-3.85.34-1.65-.3-2.8-1.6-3.71-.45-.31-.87-.68-1.26-1.07-.93-.94-1.45-2.06-.99-3.37.19-.54.05-.93-.15-1.37-1.86-4.07-3.73-8.14-5.6-12.21-.82-1.78-2.08-3.24-3.41-4.65-.75-.8-1.5-1.62-2.17-2.49-.96-1.23-1.43-2.66-1.42-4.23.01-1.05.1-2.09.86-2.9.55-.58.55-1.19.36-1.91-.41-1.47-1-2.86-1.71-4.2-.64-1.22-1.3-2.43-1.94-3.65-1.25-2.4-1.8-4.91-1.13-7.59.5-2.02.02-3.78-1.28-5.38-.65-.8-1.25-1.65-1.84-2.5-1.07-1.53-1.16-4.12.49-5.48.08-.07.1-.22.16-.37-.11-.15-.2-.35-.35-.47-1.48-1.06-1.71-2.58-1.6-4.23.03-.48.15-.95.2-1.43.08-.82.16-1.65.21-2.47.06-1.05-.17-2.05-.67-2.99-.36-.67-.68-1.36-.92-2.07-.27-.8-.29-1.62.03-2.43.51-1.26.95-1.46,2.21-.9,5,2.24,9.61,5.11,13.86,8.56,6.22,5.05,11.36,11.03,15.37,17.98.3.53.52,1.12,1.2,1.34.56.18.77.77,1.08,1.22,3.33,4.83,6.4,9.82,9.4,14.85,3.07,5.15,5.93,10.42,8.57,15.79,1.92,3.89,3.67,7.87,5.5,11.8.32.69.57,1.41,1.08,1.99.75.85,1.73.85,2.49,0,.32-.36.58-.78.68-1.26.14-.67.31-1.35.38-2.03.36-3.51,1.91-6.44,4.25-9,1.74-1.9,3.77-3.42,6-4.69,2.46-1.4,5.03-2.58,7.66-3.61,7.12-2.8,13.53-6.8,19.54-11.49,3.53-2.76,6.93-5.69,10.25-8.69.56-.51,1.13-1.01,1.73-1.48.2-.15.5-.22.76-.22.16,0,.36.17.47.31.06.07.04.3-.03.38-.4.47-.8.96-1.26,1.35-.95.8-1.76,1.74-2.63,2.63-1.88,1.92-3.85,3.75-5.77,5.64-4.27,4.22-8.39,8.57-11.71,13.61-1.87,2.83-3.33,5.85-4.5,9.03-1.16,3.17-1.92,6.45-2.93,9.67-1.54,4.89-3.61,9.53-6.2,13.95-2.3,3.93-4.68,7.8-7.24,11.57-2.06,3.04-4.45,5.79-7.39,8.04-1.19.91-2.19,2.1-3.72,2.49-4.35,2.58-9.08,4.31-13.77,6.13-1.48.57-2.96,1.13-4.45,1.66-.94.33-1.71.83-2.32,1.63-.54.71-1.17,1.36-1.83,1.96-.67.61-1.48.97-2.42,1.03-2.08.13-3.24-1.29-3.39-3.1-.03-.33.09-.68.15-1.02.08-.45-.21-.64-.55-.71-1.23-.22-2.47-.23-3.7,0-1.56.28-3.09.69-4.58,1.26-4.25,1.62-8.5,3.23-12.87,4.49-4.43,1.29-8.91,2.36-13.45,3.22-4.47.85-8.98,1.41-13.51,1.85-2.33.23-4.67.35-7.37.15Zm53.87-51.2c-1.17-.24-2.35-.47-3.52-.71l-.04-.08h-.17c-.54-.07-1.08-.18-1.62-.23-.65-.06-.99.36-.86,1.02.17.85.67,1.47,1.33,2,.74.6,1.59,1.09,2.12,1.92.37.58.88.78,1.53.86,1.83.23,3.65.51,5.48.77h.02c.11-.15.29-.26.24-.52-.2-1.22-.38-2.45-.56-3.67-.06-.41-.35-.55-.71-.63-1.01-.22-2.02-.45-3.02-.68-.01-.06-.08-.09-.2-.06Zm1.33,6.7c-.13-.02-.26-.05-.39-.07-.55-.06-1.1-.07-1.64-.17-1.52-.29-1.59-.02-1.59,1.48,0,.48.06.97.33,1.38,1.32,2.02,2.87,3.82,4.8,5.33,1.2-.73,2.3-1.39,3.27-2.27,1-.91,1.16-2.02.76-3.19-.36-1.06-.94-1.93-2.29-1.99-1.09-.05-2.17-.32-3.25-.49Zm1.56-14.56c-1.41-.31-2.82-.61-4.23-.92-1.34-.29-2.68-.61-4.03-.88-1.38-.28-2.72-.85-4.35-.75,1.11,2.44,2.17,4.75,3.22,7.06.19.41.5.61.94.69,2.76.55,5.52,1.14,8.28,1.69.37.07.78.29,1.22-.09.07-1.04.15-2.14.22-3.23.06-.82.1-1.65.18-2.47.06-.64-.34-.82-.86-.91-.13-.02-.26-.09-.39-.14,0-.07-.08-.09-.21-.07Zm-3.31-7.45c-4.4-1.04-8.8-2.07-13.56-3.2,1.43,2,2.34,3.9,3.23,5.81.1.22.37.41.61.5.45.17.92.28,1.39.38,3.08.7,6.16,1.42,9.26,2.08,1.25.26,2.47.7,3.88.69.1-1.43.21-2.8.29-4.17.05-.83.02-.87-.87-1.1-1.33-.34-2.68-.63-4.02-.94,0-.07-.08-.09-.21-.07Zm3.86-32.53c-1.14,1.56-1.58,3.19-1.31,5.06.18,1.23.46,2.43.98,3.58.57,1.25,1.09,2.53,1.66,3.78,1.32,2.88,1.84,5.9,1.64,9.05-.13,1.99-.22,3.99-.34,5.99-.21,3.44-.46,6.88-.65,10.32-.2,3.65-.38,7.29-.52,10.94-.08,2.11.45,4.09,1.64,5.87.31.46.61.92.91,1.38.98,1.52.73,3.77-.63,4.9-.69.57-1.38,1.14-2.14,1.62-4.82,3.07-9.65,6.14-14.46,9.22-13,8.31-26,16.63-39,24.95-.61.39-1.2.82-2.16,1.48.75,0,1.06.02,1.38,0,5.03-.31,10.02-.92,14.98-1.76.81-.14,1.59-.37,2.36-.72,7.64-3.5,15.4-6.71,23.33-9.48,5.72-2,11.49-3.85,17.22-5.8,4.83-1.64,9.55-3.53,13.99-6.08,4.85-2.79,9-6.34,12.2-10.96,1.29-1.87,2.56-3.76,3.83-5.65,1.54-2.29,3.14-4.54,5.11-6.49,1.37-1.36,2.82-2.63,4.26-3.92,1.6-1.42,3.22-2.82,4.65-4.41,1.72-1.92,3.03-4.05,3.76-6.57,1.36-4.73,3.59-9.07,6.53-13.03,2.34-3.16,4.89-6.13,7.67-8.91.5-.5.94-1.05,1.41-1.57-.94.36-1.71.9-2.46,1.47-5.36,4.04-11.05,7.5-17.29,10.02-1.91.77-3.8,1.62-5.66,2.5-2.57,1.2-5,2.64-7.1,4.56-3,2.74-5.02,6-5.4,10.15-.07.75-.23,1.5-.48,2.21-.32.94-.94,1.66-1.88,2.09-.69.32-1.32.3-1.97-.08-.62-.36-1.07-.87-1.39-1.49-.32-.61-.6-1.24-.88-1.87-2.3-5.23-4.69-10.41-7.38-15.45-2.76-5.16-5.53-10.31-8.64-15.27-2.08-3.33-4.2-6.64-6.32-9.94-.4-.62-.73-1.32-1.43-1.69Zm-31.38,94.84c.71-.03.96,0,1.2-.06,1.73-.44,3.46-.9,5.19-1.37,4.85-1.32,9.57-3.06,14.26-4.87,1.55-.6,3.12-1.1,4.76-1.37,1.78-.29,3.57-.35,5.32.23.66.22.76.37.56,1.02-.18.6-.35,1.18-.23,1.82.19,1.07.91,1.68,1.99,1.72.89.03,1.63-.34,2.23-.92.65-.62,1.25-1.29,1.79-2,.56-.75,1.27-1.24,2.14-1.54.46-.15.9-.33,1.35-.5,4.36-1.69,8.77-3.27,13.03-5.22,6.37-2.91,11.55-7.15,15.35-13.08,2.56-4.01,5.12-8.01,7.46-12.15,2.01-3.54,3.69-7.24,4.92-11.13.18-.58.31-1.18.43-1.78.01-.07-.15-.19-.24-.27-.05-.04-.16-.07-.2-.04-.17.11-.33.23-.47.37-1.65,1.76-3.45,3.37-5.31,4.92-3.26,2.71-6.01,5.86-8.34,9.4-1.4,2.13-2.83,4.24-4.3,6.32-2.41,3.41-5.39,6.26-8.81,8.65-1.98,1.38-4.07,2.58-6.22,3.67-4.8,2.44-9.88,4.21-14.99,5.84-10.23,3.27-20.35,6.85-30.21,11.13-.75.32-1.49.67-2.64,1.19Zm31.12-83.39c-.61-1.61-1.21-2.85-1.53-4.15-.25-1-.73-1.73-1.47-2.39-2.15-1.95-4.5-3.63-7.01-5.07-2.56-1.47-5.18-2.85-7.79-4.25-3.46-1.85-6.92-3.69-10.05-6.08-.77-.59-1.05-.55-1.45.54-.32.87-.24,1.78.24,2.59.42.71.9,1.38,1.37,2.06.62.91,1.4,1.74,1.84,2.73.43.97,1.1,1.5,1.94,2,3.79,2.25,7.74,4.18,11.71,6.09,3.96,1.9,7.9,3.85,12.2,5.94Zm-25.81-7.62c.03,1.26.26,2.46.72,3.63.3.75.77,1.19,1.54,1.52,8.12,3.4,16.21,6.84,24.32,10.27.32.13.63.29.96.35.3.06.56-.12.54-.44-.07-1.31-.23-2.6-.59-3.87-.24-.87-.69-1.43-1.5-1.83-2.53-1.25-5.01-2.58-7.54-3.82-5.68-2.78-11.46-5.36-16.94-8.55-.91-.53-1.12-.41-1.29.67-.1.68-.15,1.37-.22,2.05Zm23.58-.74c.34-.33.32-.76.45-1.14.22-.64.16-1.21-.41-1.67-.16-.13-.29-.29-.43-.44-7.12-7.51-15.23-13.73-24.4-18.54-2.8-1.47-2.53-1.73-2.88,1.69-.03.27-.03.55-.04.82-.02,1.16.37,2.06,1.31,2.86,2.37,2.02,4.91,3.79,7.62,5.3,2.82,1.58,5.68,3.09,8.53,4.63,3.4,1.83,6.73,3.76,9.71,6.25.15.12.36.17.54.25Zm.88-4.53c-.16-.99-.55-1.47-.87-1.98-5.03-8.15-11.51-14.9-19.5-20.19-2.7-1.79-5.55-3.32-8.49-4.67-.52-.24-.92,0-1.08.55-.27.94.11,1.77.47,2.58.41.94,1.02,1.8,1.17,2.85.05.36.31.61.63.78.36.19.75.35,1.11.54,8.55,4.28,16.29,9.73,23.24,16.31,1.05.99,2.07,2.02,3.31,3.24Zm-21.63,12.19c-.11.3-.16.37-.14.41,1.04,2.23,2.28,4.39,2.57,6.91.02.16.23.35.39.43.43.21.89.37,1.34.53,6.42,2.24,12.9,4.29,19.44,6.13.26.07.53.15.8.19.28.04.58,0,.6-.35.07-1.03.12-2.06.15-3.09,0-.28-.13-.52-.42-.64-.5-.22-1-.45-1.51-.67-4.43-1.87-8.85-3.74-13.28-5.62-3.28-1.39-6.57-2.79-9.95-4.23Zm24.58,21.22c.11-1.48.2-2.71.3-3.95.05-.58-.19-.9-.76-1.02-.4-.09-.79-.24-1.19-.35-6.5-1.8-12.93-3.84-19.29-6.09-.52-.18-1.04-.37-1.57-.53-.7-.2-.97.01-1.07.79-.26,1.89.31,3.53,1.47,5.01.48.62,1.02,1.03,1.83,1.22,4.14,1.02,8.26,2.15,12.4,3.17,2.53.63,5.09,1.13,7.87,1.75Z"/>
  <path class="cls-2" d="m342.14,363.75c-.47.11-.94.21-1.41.32-5.6,1.36-11.33-3.2-11.67-9-.24-4.14,2.38-8.06,6.3-9.47.58-.21,1.19-.32,1.78-.48,1.12.01,2.25.02,3.37.03,6.85.93,9.85,8.7,6.51,14.55-1.1,1.93-2.74,3.25-4.83,4,0,0-.08,0-.08,0l.04.06Z"/>
  <path class="cls-1" d="m340.51,345.15c-1.13,0-2.25-.02-3.37-.03,1.13-.36,2.25-.35,3.37.03Z"/>
  <polygon class="cls-1" points="342.14 363.75 342.1 363.69 342.18 363.7 342.14 363.75"/>
  <path class="cls-2" d="m152.56,267.52c1.67-.04,3.29.17,4.87.75,1.88.69,3.12,1.99,3.7,3.88.73,2.36.72,4.74-.06,7.11-.65,1.97-1.96,3.27-3.89,3.98-1.04.38-2.12.62-3.22.69-1.23.08-2.48.05-3.71.02-.76-.02-.93-.21-.94-1.03-.02-2.41-.01-4.82-.01-7.23,0-2.27-.01-4.54,0-6.81,0-1.02.14-1.15,1.19-1.26.68-.07,1.37-.07,2.06-.11Z"/>
  <path class="cls-2" d="m190.65,272.8c1.96,4.72,3.6,9.44,5.19,14.04-.08.22-.09.29-.13.33-.05.04-.12.08-.19.08-3.16.02-6.33.04-9.49.05-.33,0-.66-.06-1.04-.09,0-.27-.06-.49,0-.67,1.8-4.59,3.54-9.22,5.66-13.75Z"/>
  <path class="cls-2" d="m278,285.08c.07,2.58-.19,5.04-.77,7.47-.24,1-.53,2-.9,2.96-1.74,4.43-5.1,6.71-9.76,7.16-2.06.2-4.12.16-6.16-.35-3.17-.8-5.59-2.59-7.31-5.35-1.57-2.51-2.38-5.29-2.67-8.19-.37-3.71-.41-7.43.3-11.13.31-1.63.79-3.21,1.52-4.7,1.38-2.82,3.54-4.69,6.57-5.56,3.41-.99,6.81-.93,10.18.13,2.59.81,4.63,2.4,6.07,4.72.99,1.59,1.68,3.32,2.12,5.14.61,2.56.92,5.15.81,7.7Z"/>
  <path class="cls-2" d="m246.41,142.37c.7.37,1.04,1.07,1.43,1.69,2.12,3.3,4.23,6.62,6.32,9.94,3.11,4.96,5.88,10.11,8.64,15.27,2.69,5.04,5.08,10.22,7.38,15.45.28.63.56,1.26.88,1.87.32.62.78,1.13,1.39,1.49.65.38,1.28.4,1.97.08.94-.43,1.56-1.15,1.88-2.09.25-.71.41-1.46.48-2.21.38-4.15,2.4-7.41,5.4-10.15,2.11-1.92,4.54-3.36,7.1-4.56,1.87-.88,3.75-1.72,5.66-2.5,6.24-2.52,11.93-5.98,17.29-10.02.75-.56,1.52-1.1,2.46-1.47-.47.52-.92,1.07-1.41,1.57-2.78,2.78-5.33,5.75-7.67,8.91-2.93,3.96-5.16,8.29-6.53,13.03-.73,2.52-2.03,4.65-3.76,6.57-1.43,1.59-3.05,2.99-4.65,4.41-1.44,1.28-2.89,2.56-4.26,3.92-1.97,1.95-3.57,4.19-5.11,6.49-1.27,1.89-2.53,3.78-3.83,5.65-3.2,4.62-7.36,8.17-12.2,10.96-4.44,2.56-9.16,4.44-13.99,6.08-5.73,1.95-11.5,3.8-17.22,5.8-7.93,2.77-15.69,5.99-23.33,9.48-.77.35-1.55.59-2.36.72-4.96.84-9.95,1.45-14.98,1.76-.32.02-.63,0-1.38,0,.96-.66,1.55-1.09,2.16-1.48,13-8.32,25.99-16.64,39-24.95,4.82-3.08,9.64-6.15,14.46-9.22.76-.48,1.45-1.05,2.14-1.62,1.36-1.12,1.62-3.38.63-4.9-.3-.46-.6-.92-.91-1.38-1.19-1.78-1.71-3.76-1.64-5.87.13-3.65.31-7.3.52-10.94.19-3.44.44-6.88.65-10.32.12-1.99.21-3.99.34-5.99.21-3.16-.31-6.17-1.64-9.05-.58-1.25-1.09-2.53-1.66-3.78-.52-1.14-.8-2.35-.98-3.58-.27-1.87.17-3.5,1.31-5.06Z"/>
  <path class="cls-2" d="m215.03,237.21c1.15-.52,1.89-.87,2.64-1.19,9.86-4.28,19.98-7.86,30.21-11.13,5.12-1.63,10.19-3.4,14.99-5.84,2.15-1.09,4.24-2.29,6.22-3.67,3.42-2.39,6.4-5.24,8.81-8.65,1.47-2.08,2.9-4.19,4.3-6.32,2.33-3.53,5.09-6.69,8.34-9.4,1.85-1.54,3.65-3.15,5.31-4.92.14-.15.3-.26.47-.37.04-.03.15,0,.2.04.1.08.26.19.24.27-.12.6-.25,1.2-.43,1.78-1.23,3.89-2.91,7.58-4.92,11.13-2.34,4.14-4.9,8.14-7.46,12.15-3.79,5.93-8.98,10.18-15.35,13.08-4.26,1.95-8.67,3.53-13.03,5.22-.45.17-.9.35-1.35.5-.87.29-1.57.79-2.14,1.54-.54.71-1.14,1.39-1.79,2-.61.58-1.35.94-2.23.92-1.08-.03-1.8-.64-1.99-1.72-.11-.64.05-1.22.23-1.82.2-.66.1-.81-.56-1.02-1.75-.58-3.54-.52-5.32-.23-1.63.26-3.21.77-4.76,1.37-4.69,1.81-9.4,3.55-14.26,4.87-1.73.47-3.46.92-5.19,1.37-.24.06-.49.03-1.2.06Z"/>
  <path class="cls-2" d="m246.15,153.82c-4.3-2.09-8.24-4.04-12.2-5.94-3.97-1.91-7.92-3.83-11.71-6.09-.84-.5-1.52-1.03-1.94-2-.43-.99-1.22-1.82-1.84-2.73-.47-.68-.95-1.35-1.37-2.06-.48-.81-.56-1.72-.24-2.59.4-1.1.68-1.13,1.45-.54,3.13,2.4,6.59,4.23,10.05,6.08,2.61,1.4,5.22,2.78,7.79,4.25,2.51,1.44,4.86,3.12,7.01,5.07.73.67,1.22,1.39,1.47,2.39.32,1.31.92,2.54,1.53,4.15Z"/>
  <path class="cls-2" d="m220.34,146.2c.07-.68.11-1.37.22-2.05.17-1.09.38-1.2,1.29-.67,5.48,3.18,11.26,5.77,16.94,8.55,2.53,1.24,5.02,2.57,7.54,3.82.81.4,1.26.96,1.5,1.83.36,1.27.51,2.56.59,3.87.02.32-.25.5-.54.44-.33-.07-.65-.22-.96-.35-8.1-3.43-16.2-6.87-24.32-10.27-.77-.32-1.24-.76-1.54-1.52-.46-1.17-.69-2.37-.72-3.63Z"/>
  <path class="cls-2" d="m243.92,145.46c-.18-.08-.39-.12-.54-.25-2.98-2.48-6.31-4.41-9.71-6.25-2.85-1.54-5.7-3.05-8.53-4.63-2.71-1.51-5.25-3.28-7.62-5.3-.94-.8-1.34-1.69-1.31-2.86,0-.28.01-.55.04-.82.36-3.42.08-3.16,2.88-1.69,9.17,4.81,17.28,11.02,24.4,18.54.14.15.27.32.43.44.57.45.63,1.03.41,1.67-.13.38-.11.81-.45,1.14Z"/>
  <path class="cls-2" d="m244.8,140.93c-1.25-1.22-2.27-2.24-3.31-3.24-6.94-6.58-14.68-12.02-23.24-16.31-.37-.18-.75-.34-1.11-.54-.31-.17-.57-.42-.63-.78-.16-1.05-.76-1.91-1.17-2.85-.36-.81-.74-1.64-.47-2.58.16-.55.56-.79,1.08-.55,2.94,1.35,5.79,2.88,8.49,4.67,7.99,5.29,14.47,12.04,19.5,20.19.32.51.71.99.87,1.98Z"/>
  <path class="cls-2" d="m223.17,153.12c3.39,1.44,6.67,2.84,9.95,4.23,4.42,1.88,8.85,3.74,13.28,5.62.51.21,1,.45,1.51.67.29.12.43.36.42.64-.03,1.03-.08,2.06-.15,3.09-.02.35-.32.39-.6.35-.27-.04-.54-.12-.8-.19-6.54-1.85-13.02-3.89-19.44-6.13-.45-.16-.91-.32-1.34-.53-.17-.08-.37-.27-.39-.43-.3-2.51-1.53-4.67-2.57-6.91-.02-.04.03-.11.14-.41Z"/>
  <path class="cls-2" d="m247.75,174.34c-2.79-.61-5.34-1.12-7.87-1.75-4.14-1.02-8.26-2.15-12.4-3.17-.8-.2-1.34-.61-1.83-1.22-1.16-1.48-1.73-3.12-1.47-5.01.11-.78.37-.99,1.07-.79.53.15,1.05.34,1.57.53,6.36,2.25,12.79,4.29,19.29,6.09.4.11.78.27,1.19.35.57.12.8.45.76,1.02-.1,1.23-.19,2.47-.3,3.95Z"/>
  <path class="cls-2" d="m242.76,174.97c1.34.31,2.68.6,4.02.94.89.22.92.26.87,1.1-.08,1.37-.19,2.74-.29,4.17-1.41,0-2.63-.43-3.88-.69-3.09-.65-6.17-1.38-9.26-2.08-.47-.11-.94-.21-1.39-.38-.24-.09-.51-.28-.61-.5-.88-1.91-1.8-3.8-3.23-5.81,4.76,1.12,9.16,2.16,13.56,3.2,0,.21.12.09.21.07Z"/>
  <path class="cls-2" d="m246.06,182.42c.13.05.26.11.39.14.51.09.91.27.86.91-.07.82-.12,1.65-.18,2.47-.08,1.09-.15,2.19-.22,3.23-.44.37-.85.16-1.22.09-2.76-.55-5.52-1.14-8.28-1.69-.45-.09-.76-.29-.94-.69-1.05-2.31-2.11-4.62-3.22-7.06,1.63-.1,2.97.47,4.35.75,1.35.27,2.69.59,4.03.88,1.41.31,2.82.61,4.23.92.01.21.12.09.21.07Z"/>
  <path class="cls-2" d="m244.3,196.92c1.08.17,2.16.44,3.25.49,1.35.06,1.94.94,2.29,1.99.39,1.17.24,2.27-.76,3.19-.97.89-2.07,1.55-3.27,2.27-1.93-1.5-3.48-3.31-4.8-5.33-.27-.42-.33-.9-.33-1.38,0-1.5.07-1.77,1.59-1.48.54.1,1.09.12,1.63.17-.02.02-.03.05-.05.07.05.01.11.04.16.04.09,0,.18-.02.28-.03Z"/>
  <path class="cls-2" d="m247.2,195.78c-1.83-.26-3.65-.54-5.48-.77-.65-.08-1.16-.28-1.53-.86-.53-.82-1.38-1.32-2.12-1.92-.66-.53-1.16-1.15-1.33-2-.13-.66.2-1.08.86-1.02.54.05,1.08.16,1.62.24,0,.2.13.09.21.07,1.17.24,2.35.47,3.52.71.01.21.12.09.21.06,1.01.23,2.01.46,3.02.68.36.08.65.22.71.63.19,1.22.36,2.45.56,3.67.04.26-.13.37-.24.53,0,0-.02,0-.02,0Z"/>
  <path class="cls-1" d="m244.3,196.92c-.09.01-.18.03-.28.03-.05,0-.11-.02-.16-.04.01-.02.03-.05.05-.07.13.02.26.05.39.07Z"/>
  <path class="cls-1" d="m246.06,182.42c-.08.03-.2.14-.21-.07.13-.02.2,0,.21.07Z"/>
  <path class="cls-1" d="m239.44,189.51c-.09.01-.21.13-.21-.07,0,0,.17,0,.17,0l.04.08Z"/>
  <path class="cls-1" d="m243.17,190.28c-.08.03-.19.15-.21-.06.13-.02.19,0,.21.06Z"/>
  <path class="cls-1" d="m242.76,174.97c-.08.02-.2.14-.21-.07.13-.02.2,0,.21.07Z"/>
  <path class="cls-1" d="m247.2,195.78s.02,0,.02,0c0,0-.02,0-.02,0Z"/>
</svg>