<?xml version="1.0" encoding="UTF-8"?>
<svg id="Layer_1" data-name="Layer 1" xmlns="http://www.w3.org/2000/svg" viewBox="0 0 1000 1000">
  <defs>
    <style>
      .cls-1 {
        fill: #fff;
        stroke: #005;
        stroke-miterlimit: 10;
        stroke-width: .75px;
      }

      .cls-2 {
        fill: #00bdff;
      }

      .cls-3 {
        fill: #231f20;
      }
    </style>
  </defs>
  <path class="cls-3" d="m567.54,527.16c-5.4-1.08-10.8-2.16-16.19-3.24l-.2-.37-.77.03c-2.48-.37-4.96-.84-7.46-1.08-3-.29-4.53,1.66-3.93,4.67.78,3.92,3.1,6.75,6.12,9.19,3.41,2.76,7.31,5.03,9.73,8.81,1.7,2.67,4.02,3.59,7.01,3.97,8.4,1.06,16.78,2.35,25.16,3.55l.09.04c.51-.74,1.31-1.25,1.12-2.43-.91-5.61-1.73-11.24-2.59-16.87-.28-1.87-1.62-2.51-3.26-2.87-4.63-1.02-9.26-2.07-13.89-3.11-.05-.3-.36-.39-.94-.28Zm6.13,30.78c-.59-.11-1.19-.23-1.78-.34-2.51-.25-5.06-.33-7.53-.8-7-1.33-7.31-.08-7.32,6.81,0,2.21.27,4.44,1.52,6.36,6.06,9.28,13.2,17.56,22.07,24.47,5.5-3.34,10.57-6.37,15.01-10.44,4.58-4.2,5.32-9.28,3.5-14.65-1.64-4.85-4.33-8.86-10.54-9.16-5.01-.24-9.96-1.47-14.94-2.26Zm7.17-66.91c-6.48-1.4-12.96-2.8-19.44-4.21-6.17-1.35-12.32-2.8-18.51-4.05-6.35-1.28-12.5-3.9-19.98-3.44,5.12,11.23,9.96,21.83,14.79,32.43.85,1.87,2.28,2.78,4.33,3.19,12.69,2.55,25.36,5.24,38.06,7.79,1.72.34,3.59,1.33,5.6-.39.33-4.79.68-9.82,1.02-14.85.26-3.78.47-7.57.81-11.35.26-2.96-1.58-3.76-3.94-4.19-.61-.11-1.19-.41-1.79-.62-.04-.3-.35-.4-.95-.3Zm-15.21-34.22c-20.21-4.76-40.42-9.53-62.29-14.69,6.58,9.21,10.77,17.9,14.84,26.67.47,1.01,1.72,1.89,2.81,2.32,2.05.79,4.23,1.27,6.39,1.76,14.17,3.22,28.31,6.54,42.53,9.55,5.72,1.21,11.35,3.2,17.81,3.18.46-6.57.97-12.85,1.32-19.14.21-3.83.1-4.01-4.01-5.05-6.12-1.54-12.3-2.88-18.45-4.3-.03-.3-.35-.41-.95-.31Zm17.73-149.48c-5.23,7.17-7.25,14.65-6.02,23.27.81,5.64,2.09,11.19,4.48,16.43,2.62,5.76,5,11.62,7.64,17.37,6.09,13.23,8.46,27.1,7.52,41.6-.6,9.16-1.01,18.34-1.58,27.5-.97,15.8-2.1,31.59-2.97,47.4-.92,16.75-1.77,33.52-2.37,50.28-.35,9.7,2.07,18.8,7.52,26.97,1.4,2.11,2.79,4.22,4.17,6.35,4.52,7,3.36,17.34-2.91,22.51-3.18,2.62-6.34,5.22-9.82,7.44-22.16,14.11-44.32,28.21-66.45,42.36-59.74,38.2-119.46,76.42-179.18,114.65-2.82,1.8-5.52,3.79-9.92,6.82,3.42,0,4.88.08,6.33-.01,23.09-1.41,46.02-4.22,68.82-8.07,3.71-.63,7.31-1.71,10.83-3.32,35.1-16.06,70.75-30.82,107.19-43.57,26.26-9.19,52.77-17.67,79.12-26.64,22.18-7.55,43.9-16.2,64.28-27.95,22.26-12.84,41.37-29.14,56.06-50.37,5.95-8.59,11.77-17.26,17.59-25.94,7.06-10.54,14.44-20.86,23.48-29.81,6.29-6.23,12.96-12.11,19.58-17.99,7.34-6.52,14.78-12.94,21.35-20.27,7.91-8.82,13.91-18.59,17.26-30.18,6.27-21.75,16.51-41.66,30-59.85,10.75-14.5,22.49-28.15,35.26-40.92,2.29-2.28,4.34-4.8,6.5-7.21-4.31,1.67-7.85,4.15-11.29,6.74-24.63,18.54-50.76,34.46-79.44,46.03-8.79,3.55-17.44,7.44-26.03,11.47-11.79,5.53-22.95,12.12-32.63,20.96-13.79,12.59-23.07,27.58-24.81,46.63-.31,3.43-1.08,6.91-2.21,10.16-1.49,4.3-4.33,7.62-8.65,9.6-3.16,1.45-6.04,1.37-9.03-.38-2.83-1.66-4.91-4-6.4-6.85-1.46-2.8-2.76-5.69-4.04-8.59-10.56-24.02-21.54-47.85-33.91-70.99-12.67-23.71-25.43-47.38-39.7-70.18-9.57-15.29-19.28-30.51-29.02-45.69-1.82-2.84-3.36-6.05-6.59-7.76Zm-144.19,435.75c3.24-.15,4.43,0,5.51-.28,7.96-2.04,15.91-4.12,23.84-6.28,22.3-6.08,43.96-14.06,65.5-22.37,7.11-2.74,14.34-5.06,21.85-6.27,8.18-1.32,16.4-1.6,24.44,1.05,3.04,1,3.5,1.68,2.57,4.71-.85,2.75-1.61,5.44-1.08,8.36.89,4.93,4.18,7.74,9.16,7.89,4.08.12,7.48-1.55,10.27-4.22,2.96-2.83,5.74-5.93,8.2-9.2,2.59-3.44,5.82-5.7,9.83-7.06,2.1-.71,4.16-1.52,6.22-2.32,20.05-7.75,40.28-15.04,59.87-23.98,29.26-13.35,53.09-32.85,70.53-60.11,11.77-18.4,23.52-36.81,34.29-55.81,9.22-16.28,16.95-33.25,22.59-51.13.84-2.68,1.42-5.44,1.99-8.2.07-.32-.68-.87-1.12-1.22-.22-.18-.71-.3-.9-.18-.76.51-1.54,1.06-2.16,1.72-7.6,8.1-15.86,15.49-24.38,22.58-14.97,12.47-27.62,26.95-38.34,43.18-6.45,9.77-13.01,19.48-19.78,29.05-11.08,15.67-24.76,28.76-40.48,39.74-9.1,6.36-18.72,11.84-28.6,16.86-22.07,11.23-45.38,19.32-68.89,26.83-47.02,15.02-93.51,31.47-138.8,51.15-3.44,1.49-6.83,3.08-12.13,5.48Zm142.99-383.16c-2.8-7.39-5.55-13.08-7.03-19.08-1.14-4.61-3.37-7.93-6.73-10.99-9.88-8.98-20.69-16.68-32.22-23.31-11.78-6.77-23.8-13.11-35.77-19.53-15.88-8.51-31.81-16.94-46.18-27.95-3.54-2.71-4.84-2.55-6.68,2.48-1.47,4.01-1.1,8.18,1.09,11.92,1.91,3.26,4.15,6.33,6.29,9.45,2.86,4.17,6.45,8,8.44,12.54,1.95,4.46,5.07,6.9,8.93,9.2,17.4,10.36,35.58,19.2,53.81,27.96,18.2,8.75,36.32,17.67,56.06,27.3Zm-118.6-35.01c.13,5.78,1.18,11.31,3.3,16.69,1.36,3.46,3.53,5.49,7.06,6.96,37.29,15.63,74.5,31.45,111.73,47.21,1.45.61,2.9,1.31,4.42,1.63,1.37.28,2.58-.53,2.5-2-.34-6-1.06-11.93-2.69-17.77-1.11-3.98-3.19-6.57-6.9-8.4-11.62-5.73-23.03-11.87-34.66-17.56-26.1-12.78-52.66-24.65-77.84-39.27-4.18-2.43-5.15-1.9-5.91,3.09-.48,3.12-.68,6.28-1,9.42Zm108.35-3.4c1.57-1.5,1.47-3.51,2.08-5.24,1.03-2.95.75-5.58-1.88-7.67-.74-.58-1.33-1.35-1.98-2.04-32.71-34.52-69.96-63.07-112.09-85.17-12.86-6.75-11.6-7.97-13.23,7.77-.13,1.26-.16,2.53-.18,3.79-.11,5.35,1.71,9.44,6.02,13.12,10.89,9.29,22.54,17.39,34.99,24.35,12.97,7.25,26.11,14.19,39.18,21.25,15.6,8.43,30.92,17.29,44.6,28.7.68.57,1.68.77,2.49,1.13Zm4.06-20.81c-.71-4.53-2.54-6.75-3.99-9.1-23.09-37.45-52.89-68.44-89.58-92.77-12.41-8.23-25.48-15.26-39.01-21.44-2.4-1.1-4.23,0-4.96,2.53-1.24,4.33.52,8.12,2.16,11.86,1.9,4.32,4.67,8.26,5.4,13.09.25,1.65,1.44,2.8,2.88,3.57,1.67.89,3.43,1.62,5.12,2.47,39.3,19.69,74.86,44.71,106.77,74.94,4.82,4.56,9.5,9.27,15.23,14.87Zm-99.38,56c-.49,1.39-.73,1.72-.65,1.89,4.78,10.26,10.46,20.18,11.82,31.73.09.74,1.04,1.62,1.8,1.98,1.98.95,4.07,1.7,6.15,2.43,29.49,10.29,59.25,19.69,89.31,28.17,1.21.34,2.43.69,3.67.88,1.29.19,2.66-.02,2.78-1.62.33-4.72.55-9.45.7-14.18.04-1.3-.59-2.39-1.92-2.96-2.32-.99-4.59-2.09-6.92-3.07-20.33-8.61-40.68-17.19-61.01-25.81-15.09-6.4-30.17-12.83-45.72-19.45Zm112.95,97.51c.51-6.79.91-12.46,1.39-18.13.22-2.65-.85-4.14-3.47-4.71-1.85-.4-3.62-1.12-5.45-1.63-29.87-8.28-59.41-17.63-88.63-27.99-2.38-.85-4.77-1.71-7.19-2.41-3.23-.93-4.43.05-4.92,3.63-1.19,8.68,1.43,16.21,6.74,23.01,2.22,2.83,4.7,4.71,8.39,5.62,19.03,4.7,37.94,9.88,56.97,14.59,11.62,2.87,23.38,5.2,36.17,8.02Z"/>
  <path class="cls-1" d="m583.37,307.32c3.23,1.71,4.77,4.92,6.59,7.76,9.74,15.18,19.45,30.4,29.02,45.69,14.27,22.8,27.03,46.47,39.7,70.18,12.37,23.14,23.35,46.97,33.91,70.99,1.27,2.89,2.57,5.79,4.04,8.59,1.49,2.84,3.56,5.18,6.4,6.85,2.99,1.75,5.87,1.83,9.03.38,4.32-1.98,7.16-5.3,8.65-9.6,1.13-3.26,1.89-6.73,2.21-10.16,1.73-19.06,11.02-34.04,24.81-46.63,9.68-8.84,20.84-15.43,32.63-20.96,8.58-4.02,17.24-7.92,26.03-11.47,28.68-11.57,54.81-27.49,79.44-46.03,3.45-2.59,6.98-5.07,11.29-6.74-2.16,2.41-4.21,4.93-6.5,7.21-12.77,12.77-24.51,26.42-35.26,40.92-13.48,18.19-23.73,38.1-30,59.85-3.34,11.59-9.34,21.36-17.26,30.18-6.57,7.33-14.01,13.74-21.35,20.27-6.63,5.89-13.29,11.76-19.58,17.99-9.03,8.95-16.41,19.26-23.48,29.81-5.81,8.68-11.64,17.35-17.59,25.94-14.69,21.23-33.79,37.53-56.06,50.37-20.38,11.75-42.1,20.4-64.28,27.95-26.34,8.97-52.85,17.45-79.12,26.64-36.44,12.75-72.09,27.51-107.19,43.57-3.52,1.61-7.12,2.69-10.83,3.32-22.8,3.85-45.73,6.66-68.82,8.07-1.45.09-2.91.01-6.33.01,4.4-3.03,7.1-5.01,9.92-6.82,59.72-38.23,119.44-76.45,179.18-114.65,22.13-14.15,44.29-28.25,66.45-42.36,3.48-2.22,6.64-4.81,9.82-7.44,6.26-5.17,7.43-15.51,2.91-22.51-1.37-2.13-2.76-4.24-4.17-6.35-5.45-8.17-7.87-17.27-7.52-26.97.6-16.77,1.45-33.53,2.37-50.28.87-15.81,2-31.6,2.97-47.4.56-9.16.98-18.34,1.58-27.5.95-14.5-1.43-28.37-7.52-41.6-2.64-5.75-5.02-11.62-7.64-17.37-2.39-5.25-3.68-10.79-4.48-16.43-1.23-8.61.79-16.09,6.02-23.27Z"/>
  <path class="cls-1" d="m439.18,743.07c5.3-2.4,8.69-3.99,12.13-5.48,45.3-19.68,91.78-36.13,138.8-51.15,23.51-7.51,46.82-15.6,68.89-26.83,9.88-5.03,19.5-10.51,28.6-16.86,15.72-10.98,29.4-24.07,40.48-39.74,6.76-9.56,13.32-19.27,19.78-29.05,10.72-16.24,23.37-30.72,38.34-43.18,8.52-7.09,16.78-14.49,24.38-22.58.63-.67,1.4-1.21,2.16-1.72.19-.12.68,0,.9.18.44.35,1.19.9,1.12,1.22-.57,2.75-1.14,5.52-1.99,8.2-5.64,17.88-13.36,34.85-22.59,51.13-10.77,19-22.52,37.41-34.29,55.81-17.43,27.26-41.26,46.76-70.53,60.11-19.59,8.94-39.82,16.23-59.87,23.98-2.06.8-4.13,1.61-6.22,2.32-4.01,1.35-7.24,3.61-9.83,7.06-2.47,3.27-5.24,6.37-8.2,9.2-2.79,2.66-6.18,4.34-10.27,4.22-4.98-.15-8.27-2.95-9.16-7.89-.53-2.93.23-5.61,1.08-8.36.93-3.03.47-3.71-2.57-4.71-8.04-2.65-16.26-2.37-24.44-1.05-7.51,1.21-14.75,3.53-21.85,6.27-21.54,8.3-43.2,16.29-65.5,22.37-7.93,2.16-15.88,4.24-23.84,6.28-1.08.28-2.27.13-5.51.28Z"/>
  <path class="cls-1" d="m582.17,359.9c-19.75-9.62-37.86-18.55-56.06-27.3-18.23-8.76-36.41-17.6-53.81-27.96-3.87-2.3-6.98-4.74-8.93-9.2-1.99-4.54-5.59-8.37-8.44-12.54-2.14-3.12-4.37-6.19-6.29-9.45-2.19-3.73-2.56-7.9-1.09-11.92,1.85-5.03,3.15-5.2,6.68-2.48,14.37,11.01,30.29,19.44,46.18,27.95,11.97,6.42,24,12.76,35.77,19.53,11.53,6.62,22.34,14.33,32.22,23.31,3.36,3.06,5.59,6.38,6.73,10.99,1.49,6,4.23,11.69,7.03,19.08Z"/>
  <path class="cls-1" d="m463.57,324.89c.32-3.14.52-6.3,1-9.42.76-4.99,1.73-5.52,5.91-3.09,25.18,14.62,51.73,26.49,77.84,39.27,11.63,5.69,23.05,11.83,34.66,17.56,3.71,1.83,5.79,4.42,6.9,8.4,1.63,5.84,2.35,11.77,2.69,17.77.08,1.47-1.13,2.29-2.5,2-1.52-.32-2.97-1.01-4.42-1.63-37.23-15.76-74.44-31.58-111.73-47.21-3.52-1.48-5.69-3.5-7.06-6.96-2.12-5.39-3.17-10.91-3.3-16.69Z"/>
  <path class="cls-1" d="m571.92,321.5c-.81-.36-1.81-.56-2.49-1.13-13.69-11.41-29-20.27-44.6-28.7-13.07-7.06-26.21-14-39.18-21.25-12.45-6.96-24.1-15.06-34.99-24.35-4.31-3.68-6.14-7.78-6.02-13.12.03-1.26.05-2.53.18-3.79,1.63-15.74.38-14.51,13.23-7.77,42.13,22.1,79.39,50.64,112.09,85.17.65.69,1.25,1.45,1.98,2.04,2.63,2.09,2.91,4.72,1.88,7.67-.61,1.73-.51,3.74-2.08,5.24Z"/>
  <path class="cls-1" d="m575.98,300.69c-5.73-5.6-10.41-10.31-15.23-14.87-31.91-30.22-67.46-55.25-106.77-74.94-1.7-.85-3.45-1.58-5.12-2.47-1.44-.76-2.63-1.92-2.88-3.57-.73-4.82-3.5-8.76-5.4-13.09-1.64-3.74-3.4-7.53-2.16-11.86.73-2.53,2.55-3.62,4.96-2.53,13.53,6.18,26.6,13.21,39.01,21.44,36.69,24.32,66.49,55.32,89.58,92.77,1.45,2.35,3.28,4.57,3.99,9.1Z"/>
  <path class="cls-1" d="m476.59,356.69c15.55,6.62,30.63,13.05,45.72,19.45,20.33,8.62,40.67,17.2,61.01,25.81,2.32.98,4.6,2.08,6.92,3.07,1.33.57,1.96,1.66,1.92,2.96-.15,4.73-.37,9.46-.7,14.18-.11,1.6-1.48,1.81-2.78,1.62-1.24-.19-2.46-.54-3.67-.88-30.06-8.48-59.82-17.88-89.31-28.17-2.08-.73-4.16-1.48-6.15-2.43-.76-.36-1.71-1.24-1.8-1.98-1.36-11.55-7.04-21.47-11.82-31.73-.08-.18.16-.51.65-1.89Z"/>
  <path class="cls-1" d="m589.54,454.19c-12.8-2.82-24.55-5.14-36.17-8.02-19.03-4.71-37.94-9.88-56.97-14.59-3.7-.91-6.18-2.79-8.39-5.62-5.32-6.8-7.93-14.32-6.74-23.01.49-3.58,1.7-4.56,4.92-3.63,2.43.7,4.81,1.57,7.19,2.41,29.22,10.36,58.76,19.7,88.63,27.99,1.83.51,3.6,1.22,5.45,1.63,2.62.57,3.7,2.05,3.47,4.71-.48,5.67-.87,11.35-1.39,18.13Z"/>
  <path class="cls-1" d="m566.59,457.11c6.15,1.42,12.33,2.76,18.45,4.3,4.11,1.03,4.22,1.21,4.01,5.05-.35,6.29-.86,12.57-1.32,19.14-6.46.02-12.09-1.97-17.81-3.18-14.21-3.01-28.36-6.33-42.53-9.55-2.16-.49-4.34-.97-6.39-1.76-1.09-.42-2.34-1.31-2.81-2.32-4.06-8.77-8.26-17.46-14.84-26.67,21.87,5.16,42.08,9.92,62.28,14.69.04.95.57.42.95.3Z"/>
  <path class="cls-1" d="m581.8,491.33c.6.21,1.17.51,1.79.62,2.36.43,4.2,1.22,3.94,4.19-.34,3.78-.55,7.57-.81,11.35-.35,5.03-.69,10.06-1.02,14.85-2.01,1.72-3.88.74-5.6.39-12.7-2.55-25.36-5.24-38.06-7.79-2.05-.41-3.48-1.33-4.33-3.19-4.84-10.6-9.67-21.21-14.79-32.43,7.47-.46,13.62,2.16,19.98,3.44,6.19,1.25,12.34,2.7,18.51,4.05,6.48,1.41,12.96,2.81,19.44,4.21.05.95.56.42.95.3Z"/>
  <path class="cls-1" d="m573.68,557.94c4.98.79,9.94,2.02,14.94,2.26,6.21.3,8.91,4.31,10.54,9.16,1.81,5.37,1.08,10.45-3.5,14.65-4.45,4.07-9.51,7.1-15.01,10.44-8.87-6.91-16.01-15.19-22.07-24.47-1.25-1.92-1.52-4.15-1.52-6.36,0-6.9.32-8.15,7.32-6.81,2.47.47,5.02.54,7.51.8-.08.11-.15.22-.21.33.25.06.49.17.74.16.43-.01.85-.1,1.27-.16Z"/>
  <path class="cls-1" d="m587.01,552.68c-8.39-1.2-16.76-2.49-25.16-3.55-2.99-.38-5.31-1.3-7.01-3.97-2.41-3.78-6.32-6.06-9.73-8.81-3.02-2.44-5.34-5.27-6.12-9.19-.6-3.01.93-4.97,3.93-4.67,2.5.25,4.97.71,7.45,1.08.04.94.6.4.99.34,5.4,1.08,10.8,2.16,16.19,3.24.06.95.56.42.94.28,4.63,1.04,9.25,2.1,13.89,3.11,1.65.36,2.98,1.01,3.26,2.87.86,5.62,1.67,11.25,2.59,16.87.19,1.18-.61,1.68-1.12,2.43,0,0-.08-.04-.08-.04Z"/>
  <path class="cls-2" d="m573.68,557.94c-.42.06-.85.14-1.27.16-.24,0-.49-.1-.74-.16.07-.11.13-.22.21-.33.61.11,1.2.23,1.79.34Z"/>
  <path class="cls-2" d="m581.8,491.33c-.39.12-.91.65-.95-.3.6-.1.92,0,.95.3Z"/>
  <path class="cls-2" d="m551.35,523.92c-.39.06-.95.59-.99-.34,0,0,.78-.03.78-.03l.2.37Z"/>
  <path class="cls-2" d="m568.48,527.44c-.39.14-.89.67-.94-.28.58-.11.89-.01.94.28Z"/>
  <path class="cls-2" d="m566.59,457.11c-.39.11-.91.65-.95-.3.6-.1.92,0,.95.3Z"/>
  <path class="cls-2" d="m587.01,552.68s.08.04.08.04c0,0-.08-.04-.08-.04Z"/>
</svg>