<?xml version="1.0" encoding="UTF-8"?>
<svg id="Layer_1" data-name="Layer 1" xmlns="http://www.w3.org/2000/svg" viewBox="0 0 1000 1000">
  <defs>
    <style>
      .cls-1 {
        fill: #00bdff;
      }
    </style>
  </defs>
  <path class="cls-1" d="m938.87,641.97c-.12-4.45-.43-8.9-.63-13.36-.74-16.82-2.74-33.5-5.67-50.06-5.21-29.47-13.58-58.04-25.08-85.68-20.55-49.36-49.62-93.07-87.12-131.13-38.5-39.08-83.06-69.32-133.61-90.68-44.99-19.01-91.96-29.43-140.69-31.76-32.49-1.55-64.76.72-96.73,6.9-32.11,6.21-63.1,15.91-92.83,29.53-60.32,27.64-111.22,67.39-152.44,119.38-41,51.7-67.94,109.98-81.04,174.65-3.51,17.33-5.77,34.83-6.97,52.47-.46,6.84-.74,13.7-1.01,20.55-.08,2.08.38,2.48,2.3,2.56,1.71.06,3.43.03,5.14.03,134.61,0,269.23,0,403.84,0h404.87c1.37,0,2.74.02,4.12,0,3.45-.07,3.63-.16,3.54-3.41Z"/>
</svg>