<?xml version="1.0" encoding="UTF-8"?>
<svg id="Layer_1" data-name="Layer 1" xmlns="http://www.w3.org/2000/svg" viewBox="0 0 1000 1000">
  <defs>
    <style>
      .cls-1 {
        fill: #00bdff;
      }

      .cls-2 {
        fill: #020293;
      }
    </style>
  </defs>
  <path class="cls-2" d="m638.72,498.29c7.54-5.92,13.61-11.37,19.18-17.37,9.03-9.71,17.99-19.47,26.99-29.2,1-1.08,2.02-2.14,3.07-3.17.93-.92,2.08-1.44,3.4-1.44,10.31,0,20.61,0,30.92.04.34,0,.74.29.99.56.54.58.26,1.26-.15,1.68-3.53,3.6-7.12,7.15-10.68,10.74-11.26,11.35-22.52,22.71-33.76,34.07-5.28,5.34-5.3,5.38-.99,11.54,15.08,21.53,30.19,43.05,45.28,64.57.96,1.38,1.97,2.73,2.86,4.15.82,1.3.17,2.59-1.33,2.62-2.73.06-5.47.03-8.2.03-6.52.01-13.04-.06-19.56.07-2.83.06-4.85-.98-6.35-3.3-1.14-1.76-2.36-3.48-3.51-5.24-9.46-14.41-18.97-28.8-28.37-43.26-4.5-6.93-4.55-6.75-10.18-.7-2.29,2.46-4.57,4.95-7,7.27-1.98,1.89-2.66,4.07-2.63,6.76.11,10.1,0,20.2.11,30.3.08,7.25-.1,8.47-8.04,8.1-4.41-.21-8.83,0-13.25-.02-1.47,0-2.95-.01-4.39-.23-1.39-.21-2.21-1.13-2.17-2.62.89-40.39.16-80.78.4-121.17,0-.84-.02-1.69.05-2.52.22-2.57.95-3.41,3.51-3.45,6.73-.1,13.46-.07,20.19-.09.21,0,.42.03.63.05,1.73.19,2.76,1.07,2.92,2.74.14,1.46.09,2.94.09,4.41,0,12.2,0,24.41,0,36.61,0,2.06,0,4.12,0,7.45Z"/>
  <path class="cls-1" d="m207.14,514.15c8.28,13.44,16.2,26.33,24.16,39.19,1.1,1.78,2.3,3.54,3.66,5.13,1.63,1.91,3.32,3.85,5.29,5.38,6.81,5.32,15.11,3.52,19-4.22,2.26-4.5,4.06-9.23,6.01-13.88,12.08-28.89,24.15-57.79,36.22-86.68.16-.39.29-.79.46-1.17,2.4-5.65,2.74-5.85,8.8-6.03,1.49-.04,2.38.58,2.88,1.89.68,1.76,1.38,3.52,2.02,5.3,11.37,31.42,22.73,62.84,34.09,94.26.14.4.24.81.39,1.2,4,10.27,5.1,10.32,13.24,12.63.4.11.82.2,1.21.34,1.91.7,2.89,1.97,2.38,3.11-.67,1.48-2.03,1.22-3.26,1.22-12.19.01-24.39.02-36.58.03-.42,0-.84-.01-1.26-.05-1.18-.1-1.94-.69-2.08-1.91-.11-.97.46-1.65,1.24-1.98,1.15-.48,2.4-.73,3.59-1.14,1.39-.47,2.8-.92,4.13-1.53,1.23-.57,1.95-1.65,1.85-3.04-.09-1.24-.22-2.53-.62-3.7-3.17-9.35-6.43-18.68-9.62-28.02-.63-1.84-1.8-2.59-3.77-2.58-11.57.05-23.13.06-34.7-.01-2.26-.01-3.42.93-4.19,2.96-3.42,9.04-6.94,18.05-10.4,27.07-.37.98-.7,1.99-.88,3.01-.39,2.22.37,3.6,2.56,4.44,1.76.68,3.61,1.12,5.41,1.71.78.26,1.59.53,2.26.99.76.52.86,1.49.63,2.28-.15.51-.73,1.14-1.22,1.25-1,.23-2.08.2-3.12.18-3.99-.05-7.99-.17-11.98-.2-5.25-.03-10.49.08-15.74.52-5.01.42-10.08.3-15.12.26-5.34-.05-9.7-2.39-13.4-6.13-2.38-2.41-4.34-5.16-6.05-8.05-4.27-7.24-8.43-14.55-12.67-21.81-2.76-4.72-5.51-9.45-8.44-14.05-3.42-5.38-7.78-7.04-14.01-5.57-.49.12-1.07.71-1.22,1.2-.24.78-.21,1.66-.2,2.5.01,13.04.04,26.08.06,39.12,0,.63.04,1.26.04,1.89,0,2.16,1.03,3.58,3.1,4.21,2.01.61,4.06,1.11,6.04,1.81.74.26,1.41.84,1.99,1.4.7.66.22,2.43-.67,2.64-.61.14-1.23.26-1.85.26-11.56.02-23.13.02-34.69.03-.21,0-.42,0-.63-.01-1.1-.04-2.09-.25-2.4-1.52-.29-1.18.41-2.27,1.93-2.78,2.59-.87,5.21-1.64,7.8-2.49,1.56-.51,2.41-1.69,2.54-3.28.14-1.67.15-3.36.15-5.04,0-29.45,0-58.89.02-88.34,0-8.87-.88-7.56-6.97-9.71-1.58-.56-3.24-.98-4.74-1.7-.72-.35-.88-1.34-.71-2.24.14-.75.71-1.02,1.29-1.15.61-.13,1.25-.09,1.89-.09,14.51-.1,29.02-.22,43.53-.28,5.05-.02,10.1.1,15.02,1.44.4.11.83.14,1.24.25,18.78,4.84,22.95,18.7,21.06,32.24-1.38,9.84-6.55,17.16-15.25,21.91-3.28,1.79-6.75,3.25-10.69,5.12Zm-19.14-54.2c-2.1.1-4.2.12-6.28.32-3.2.31-3.61.72-3.63,3.83-.05,6.93-.02,13.85-.02,20.78,0,7.35-.03,14.69.03,22.04.02,2.5.55,3.08,2.87,3.14,3.77.09,7.56.17,11.33-.06,3.34-.21,6.64-.95,9.81-2.11,5.9-2.16,9.89-6.14,11.87-12.14,2.38-7.21,2.4-14.47.18-21.68-1.77-5.75-5.57-9.74-11.3-11.84-4.81-1.76-9.76-2.41-14.84-2.29Zm116.22,16.13c-6.47,13.83-11.77,27.92-17.26,41.94-.21.53-.03,1.21-.03,2.03,1.16.11,2.17.28,3.18.28,9.66-.03,19.31-.09,28.97-.16.2,0,.43-.1.57-.24.13-.12.15-.35.41-1.02-4.85-14.04-9.87-28.43-15.84-42.83Z"/>
  <path class="cls-2" d="m894.99,551.29c0-6.73-.11-13.46.05-20.19.08-3.32-.77-6.14-2.7-8.82-15.63-21.74-28.41-45.15-40.48-68.99-.47-.94-1-1.85-1.42-2.81-.96-2.19-.4-3.32,1.9-3.34,8.62-.08,17.24-.04,25.86-.08,1.96,0,3.11,1.04,3.84,2.7.51,1.15.97,2.33,1.43,3.5,6.08,15.29,14.07,29.58,22.68,43.55.55.89,1.15,1.76,1.8,2.58.69.86,1.9.72,2.64-.27.37-.5.73-1.03,1.04-1.57,6.39-11.11,12.95-22.14,17.9-34,1.86-4.45,3.42-9.03,5.06-13.56.73-2.01,1.96-2.98,4.21-2.96,8.2.08,16.4,0,24.6.04,1.94,0,2.76,1.12,2.05,2.86-1.51,3.69-3.05,7.38-4.83,10.95-10.26,20.51-21.58,40.41-34.32,59.48-3.07,4.6-4.48,9.23-4.34,14.74.29,11.56.13,23.13.18,34.7.03,7.05-.3,7.36-7.49,7.31-5.05-.04-10.09.05-15.14,0-3.85-.04-4.47-.61-4.51-4.35-.07-7.15-.02-14.3-.02-21.45h0Z"/>
  <path class="cls-1" d="m530.63,450.66c7.77-.16,16.28.73,24.5,3.75,14.01,5.16,23.8,14.69,29.44,28.43,4.65,11.34,5.58,23.22,4.48,35.29-.69,7.56-2.27,14.94-5.37,21.93-7.56,17.05-20.21,28.09-38.45,32.44-12.68,3.03-25.42,3.08-38.05-.19-17.31-4.49-29.32-15.24-35.44-31.98-6.75-18.47-6.56-37.22.77-55.44,7.09-17.62,20.67-28.13,39.06-32.52,5.97-1.43,12.04-1.75,19.05-1.71Zm40.04,62.85c.35-7.78-.6-15.7-2.48-23.51-1.33-5.56-3.44-10.81-6.47-15.67-4.41-7.07-10.6-11.92-18.52-14.4-10.28-3.23-20.65-3.41-31.06-.4-9.24,2.67-15.85,8.37-20.05,16.97-2.23,4.57-3.7,9.38-4.65,14.35-2.15,11.26-2.04,22.62-.9,33.94.89,8.84,3.36,17.33,8.15,24.97,5.26,8.4,12.63,13.87,22.3,16.32,6.23,1.57,12.52,1.68,18.8,1.08,14.19-1.36,24.45-8.33,29.76-21.84,1.15-2.92,2.03-5.97,2.76-9.03,1.77-7.39,2.57-14.91,2.35-22.78Z"/>
  <path class="cls-1" d="m88.2,453.46c14.51,0,29.01,0,43.52,0,1.68,0,3.37-.05,5.04.01,1.96.08,2.48.73,2.18,2.85-.33,2.29-.78,4.56-1.18,6.83-.94,5.38-1.86,10.76-2.84,16.14-.23,1.23-.57,2.47-1.08,3.61-.2.44-.97.76-1.54.87-.91.19-1.66-.27-1.95-1.16-.39-1.2-.67-2.43-.96-3.66-.96-4.09-1.91-8.18-2.86-12.28-.24-1.02-.45-2.05-.72-3.07-.43-1.61-1.39-2.42-3.17-2.4-5.68.05-11.35,0-17.03,0-2.52,0-5.04.02-7.57.06-1.55.02-2.23.95-2.3,2.39-.06,1.26-.06,2.52-.06,3.78.02,29.23,0,58.46.07,87.68.02,9.78-.8,8.43,8.14,11.11,1.41.42,2.82.83,4.21,1.3,1.25.42,2.38,1.07,2.26,2.61-.14,1.75-1.54,1.72-2.81,1.7-3.15-.04-6.31-.16-9.46-.16-9.04,0-18.08.06-27.11.09-1.47,0-2.94.05-4.41,0-1.16-.03-1.99-.55-2.09-1.83-.09-1.25.64-1.97,1.7-2.31,3-.96,6-1.94,9.04-2.75,2.42-.64,3.46-2.07,3.46-4.52,0-3.57.16-7.15.16-10.72.02-27.55,0-55.09.02-82.64,0-6.01-.08-5.83-5.99-5.82-6.94.02-13.88.06-20.81-.02-2.02-.02-3.09.88-3.69,2.68-1.79,5.38-3.57,10.77-5.42,16.13-.4,1.16-.97,2.31-1.68,3.31-.27.38-1.15.48-1.74.45-.6-.04-1.15-.44-1.28-1.15-.04-.2-.11-.41-.13-.61-.57-8.6-1.14-17.2-1.7-25.8-.01-.21,0-.42,0-.63.09-1.18.65-1.98,1.9-2.03,1.68-.06,3.36-.07,5.04-.07,14.93,0,29.85,0,44.78,0,0,0,0,0,0,0Z"/>
  <path class="cls-1" d="m412.38,548.78c.51-1.1,1.08-2.18,1.51-3.3,9.53-24.47,19.05-48.94,28.54-73.42.91-2.34,1.75-4.74,2.34-7.17.81-3.36.02-4.62-3.19-5.69-1.99-.66-4.03-1.17-6.01-1.85-1.23-.42-1.29-1.51-1.12-2.59.17-1.04,1.01-1.24,1.86-1.23,3.99,0,7.99.08,11.98.07,5.89,0,11.77-.08,17.66-.09,1.25,0,2.5.1,3.75.24.73.08,1.02.78,1.01,1.37,0,.58-.19,1.5-.57,1.68-1.71.78-3.47,1.53-5.28,1.95-4.7,1.09-7.66,3.89-9.48,8.34-4.77,11.66-9.75,23.24-14.6,34.88-8.96,21.53-17.88,43.07-26.84,64.6-2.16,5.18-3.54,5.98-9.06,5.43-.89-.09-1.6-.46-1.95-1.32-.78-1.95-1.58-3.89-2.31-5.86-11.11-30.16-22.21-60.32-33.32-90.47-.87-2.37-1.8-4.71-2.68-7.07-1.65-4.45-4.57-7.45-9.32-8.55-1.63-.38-3.21-.99-4.77-1.6-.87-.34-1.16-1.22-1.1-2.07.07-.95.78-1.4,1.69-1.49.42-.04.84-.06,1.26-.06,12.19-.01,24.38-.03,36.58-.02,2.59,0,3.38.52,3.33,1.87-.07,1.66-1.33,1.92-2.54,2.28-1.81.54-3.65,1.01-5.41,1.67-2.49.93-3.32,2.27-2.82,4.88.4,2.05,1.06,4.07,1.76,6.04,6.27,17.61,12.57,35.21,18.86,52.82,2.69,7.52,5.39,15.03,8.07,22.54.42,1.17.58,2.49,2.15,3.21Z"/>
  <path class="cls-2" d="m845.75,517.08c-3.29-5.38-6.64-10.72-10.02-16.05-1.46-2.29-3.61-3.45-6.36-3.42-1.26.01-2.52-.02-3.79-.01-16.62.03-33.24.06-49.86.08-1.47,0-2.95.06-4.41-.07-2.24-.2-3.45-1.36-3.48-3.68-.07-6.94,0-13.89.02-20.83.01-2.32.28-3.74,2.49-3.9.62-.01,1.81-.06,2.19-.06,13.88,0,27.75.01,41.62.03,1.18-.57,1.36-1.44.7-2.52-3.07-5.02-6.38-9.91-9.13-15.1-1.71-3.23-3.91-4.75-7.45-4.58-.84.04-1.68,0-2.52,0-15.77,0-31.55,0-47.32,0-1.26,0-2.53-.05-3.79.04-2.78.19-3.61,1.03-3.9,3.92-.12,1.25-.11,2.52-.1,3.78.02,4.63.1,9.25.1,13.88.03,65.43.05,130.85.07,196.28,0,1.47.04,2.95-.06,4.42-.05.76-.2,1.46-.43,2.11-23.93,6.78-41.48,28.77-41.48,54.87,0,31.5,25.54,57.04,57.04,57.04s57.04-25.54,57.04-57.04c0-27.49-19.44-50.43-45.33-55.83-.21-.99-.24-2.34-.24-4.32-.02-3.79.06-7.57.06-11.36,0-23.78-.01-47.55.02-71.33,0-6.25.08-6.29,6.39-6.32,8.84-.03,17.67-.1,26.51.04,2.81.05,4.79-.71,6.3-3.16,2.86-4.66,5.93-9.19,8.87-13.79.56-.88,1.03-1.83,1.42-2.8.54-1.31-.23-2.62-1.64-2.7-1.89-.11-3.78-.12-5.67-.13-12.41-.01-24.82.03-37.24-.04-3.61-.02-4.56-.95-4.58-4.44-.05-8.63.01-17.25.04-25.88,0-.42.02-.84.08-1.26.25-1.71,1.16-2.65,2.88-2.77,1.47-.1,2.94-.04,4.41-.04,21.25,0,42.5,0,63.75,0,1.68,0,3.37.02,5.05-.08,1.88-.11,2.69-1.46,1.75-2.99Zm-89.86,183.24c14.33,0,25.96,11.62,25.96,25.96s-11.62,25.96-25.96,25.96-25.96-11.62-25.96-25.96,11.62-25.96,25.96-25.96Z"/>
</svg>